<svg width="40" height="30" viewBox="0 0 40 30" fill="none" xmlns="http://www.w3.org/2000/svg">
<rect x="1" y="1.02881" width="38" height="28" rx="8" fill="#9AD984"/>
<rect x="1" y="1.02881" width="38" height="28" rx="8" stroke="#9AD984"/>
<mask id="mask0_51413_1417" style="mask-type:alpha" maskUnits="userSpaceOnUse" x="11" y="6" width="18" height="19">
<rect x="11" y="6.02881" width="18" height="18" fill="#D9D9D9"/>
</mask>
<g mask="url(#mask0_51413_1417)">
<path d="M11.7875 19.5288C11.5751 19.5288 11.3906 19.4508 11.234 19.2948C11.078 19.1382 11 18.9537 11 18.7413V18.2724C11 17.7102 11.2844 17.2539 11.8532 16.9035C12.422 16.5537 13.1627 16.3788 14.0753 16.3788C14.2127 16.3788 14.3501 16.3818 14.4875 16.3878C14.6249 16.3944 14.7623 16.41 14.8997 16.4346C14.6999 16.71 14.5499 17.007 14.4497 17.3256C14.3501 17.6442 14.3003 17.9787 14.3003 18.3291V19.5288H11.7875ZM16.2875 19.5288C16.0751 19.5288 15.8906 19.4508 15.734 19.2948C15.578 19.1382 15.5 18.9537 15.5 18.7413V18.3291C15.5 17.5161 15.9155 16.8567 16.7465 16.3509C17.5781 15.8445 18.6626 15.5913 20 15.5913C21.35 15.5913 22.4375 15.8445 23.2625 16.3509C24.0875 16.8567 24.5 17.5161 24.5 18.3291V18.7413C24.5 18.9537 24.422 19.1382 24.266 19.2948C24.1094 19.4508 23.9249 19.5288 23.7125 19.5288H16.2875ZM25.6997 19.5288V18.3291C25.6997 17.9661 25.6499 17.6286 25.5503 17.3166C25.4501 17.004 25.3001 16.71 25.1003 16.4346C25.2377 16.41 25.3751 16.3944 25.5125 16.3878C25.6499 16.3818 25.7873 16.3788 25.9247 16.3788C26.8373 16.3788 27.578 16.5537 28.1468 16.9035C28.7156 17.2539 29 17.7102 29 18.2724V18.7413C29 18.9537 28.922 19.1382 28.766 19.2948C28.6094 19.4508 28.4249 19.5288 28.2125 19.5288H25.6997ZM20 17.1663C19.3628 17.1663 18.7847 17.2443 18.2657 17.4003C17.7467 17.5569 17.3999 17.7414 17.2253 17.9538H22.7747C22.6001 17.7414 22.2533 17.5569 21.7343 17.4003C21.2153 17.2443 20.6372 17.1663 20 17.1663ZM14.0375 15.8541C13.6001 15.8541 13.2281 15.7008 12.9215 15.3942C12.6155 15.0882 12.4625 14.7165 12.4625 14.2791C12.4625 13.8417 12.6155 13.4697 12.9215 13.1631C13.2281 12.8571 13.6001 12.7041 14.0375 12.7041C14.4749 12.7041 14.8469 12.8571 15.1535 13.1631C15.4595 13.4697 15.6125 13.8417 15.6125 14.2791C15.6125 14.7165 15.4595 15.0882 15.1535 15.3942C14.8469 15.7008 14.4749 15.8541 14.0375 15.8541ZM25.9625 15.8541C25.5251 15.8541 25.1531 15.7008 24.8465 15.3942C24.5405 15.0882 24.3875 14.7165 24.3875 14.2791C24.3875 13.8417 24.5405 13.4697 24.8465 13.1631C25.1531 12.8571 25.5251 12.7041 25.9625 12.7041C26.3999 12.7041 26.7719 12.8571 27.0785 13.1631C27.3845 13.4697 27.5375 13.8417 27.5375 14.2791C27.5375 14.7165 27.3845 15.0882 27.0785 15.3942C26.7719 15.7008 26.3999 15.8541 25.9625 15.8541ZM20 15.0288C19.3748 15.0288 18.8435 14.8101 18.4061 14.3727C17.9687 13.9353 17.75 13.404 17.75 12.7788C17.75 12.1536 17.9687 11.6223 18.4061 11.1849C18.8435 10.7475 19.3748 10.5288 20 10.5288C20.6252 10.5288 21.1565 10.7475 21.5939 11.1849C22.0313 11.6223 22.25 12.1536 22.25 12.7788C22.25 13.404 22.0313 13.9353 21.5939 14.3727C21.1565 14.8101 20.6252 15.0288 20 15.0288ZM20 12.1038C19.8128 12.1038 19.6535 12.1695 19.5221 12.3009C19.3907 12.4323 19.325 12.5916 19.325 12.7788C19.325 12.966 19.3907 13.1253 19.5221 13.2567C19.6535 13.3881 19.8128 13.4538 20 13.4538C20.1872 13.4538 20.3465 13.3881 20.4779 13.2567C20.6093 13.1253 20.675 12.966 20.675 12.7788C20.675 12.5916 20.6093 12.4323 20.4779 12.3009C20.3465 12.1695 20.1872 12.1038 20 12.1038ZM11.7875 19.5288C11.5751 19.5288 11.3906 19.4508 11.234 19.2948C11.078 19.1382 11 18.9537 11 18.7413V18.2724C11 17.7102 11.2844 17.2539 11.8532 16.9035C12.422 16.5537 13.1627 16.3788 14.0753 16.3788C14.2127 16.3788 14.3501 16.3818 14.4875 16.3878C14.6249 16.3944 14.7623 16.41 14.8997 16.4346C14.6999 16.71 14.5499 17.007 14.4497 17.3256C14.3501 17.6442 14.3003 17.9787 14.3003 18.3291V19.5288H11.7875ZM16.2875 19.5288C16.0751 19.5288 15.8906 19.4508 15.734 19.2948C15.578 19.1382 15.5 18.9537 15.5 18.7413V18.3291C15.5 17.5161 15.9155 16.8567 16.7465 16.3509C17.5781 15.8445 18.6626 15.5913 20 15.5913C21.35 15.5913 22.4375 15.8445 23.2625 16.3509C24.0875 16.8567 24.5 17.5161 24.5 18.3291V18.7413C24.5 18.9537 24.422 19.1382 24.266 19.2948C24.1094 19.4508 23.9249 19.5288 23.7125 19.5288H16.2875ZM25.6997 19.5288V18.3291C25.6997 17.9661 25.6499 17.6286 25.5503 17.3166C25.4501 17.004 25.3001 16.71 25.1003 16.4346C25.2377 16.41 25.3751 16.3944 25.5125 16.3878C25.6499 16.3818 25.7873 16.3788 25.9247 16.3788C26.8373 16.3788 27.578 16.5537 28.1468 16.9035C28.7156 17.2539 29 17.7102 29 18.2724V18.7413C29 18.9537 28.922 19.1382 28.766 19.2948C28.6094 19.4508 28.4249 19.5288 28.2125 19.5288H25.6997ZM20 17.1663C19.3628 17.1663 18.7847 17.2443 18.2657 17.4003C17.7467 17.5569 17.3999 17.7414 17.2253 17.9538H22.7747C22.6001 17.7414 22.2533 17.5569 21.7343 17.4003C21.2153 17.2443 20.6372 17.1663 20 17.1663ZM14.0375 15.8541C13.6001 15.8541 13.2281 15.7008 12.9215 15.3942C12.6155 15.0882 12.4625 14.7165 12.4625 14.2791C12.4625 13.8417 12.6155 13.4697 12.9215 13.1631C13.2281 12.8571 13.6001 12.7041 14.0375 12.7041C14.4749 12.7041 14.8469 12.8571 15.1535 13.1631C15.4595 13.4697 15.6125 13.8417 15.6125 14.2791C15.6125 14.7165 15.4595 15.0882 15.1535 15.3942C14.8469 15.7008 14.4749 15.8541 14.0375 15.8541ZM25.9625 15.8541C25.5251 15.8541 25.1531 15.7008 24.8465 15.3942C24.5405 15.0882 24.3875 14.7165 24.3875 14.2791C24.3875 13.8417 24.5405 13.4697 24.8465 13.1631C25.1531 12.8571 25.5251 12.7041 25.9625 12.7041C26.3999 12.7041 26.7719 12.8571 27.0785 13.1631C27.3845 13.4697 27.5375 13.8417 27.5375 14.2791C27.5375 14.7165 27.3845 15.0882 27.0785 15.3942C26.7719 15.7008 26.3999 15.8541 25.9625 15.8541ZM20 15.0288C19.3748 15.0288 18.8435 14.8101 18.4061 14.3727C17.9687 13.9353 17.75 13.404 17.75 12.7788C17.75 12.1536 17.9687 11.6223 18.4061 11.1849C18.8435 10.7475 19.3748 10.5288 20 10.5288C20.6252 10.5288 21.1565 10.7475 21.5939 11.1849C22.0313 11.6223 22.25 12.1536 22.25 12.7788C22.25 13.404 22.0313 13.9353 21.5939 14.3727C21.1565 14.8101 20.6252 15.0288 20 15.0288ZM20 12.1038C19.8128 12.1038 19.6535 12.1695 19.5221 12.3009C19.3907 12.4323 19.325 12.5916 19.325 12.7788C19.325 12.966 19.3907 13.1253 19.5221 13.2567C19.6535 13.3881 19.8128 13.4538 20 13.4538C20.1872 13.4538 20.3465 13.3881 20.4779 13.2567C20.6093 13.1253 20.675 12.966 20.675 12.7788C20.675 12.5916 20.6093 12.4323 20.4779 12.3009C20.3465 12.1695 20.1872 12.1038 20 12.1038Z" fill="black"/>
</g>
</svg>
