<svg width="24" height="25" viewBox="0 0 24 25" fill="none" xmlns="http://www.w3.org/2000/svg">
<path d="M6 14H3.25245C3.018 14 2.90078 14 2.80205 14.0098C1.85403 14.1041 1.10411 14.854 1.00982 15.802C1 15.9008 1 16.018 1 16.2525V16.2525C1 16.5322 1 16.6721 1.01244 16.7831C1.13321 17.8608 2.0909 18.646 3.17139 18.553C3.28269 18.5435 3.41986 18.516 3.69419 18.4612L3.99029 18.4019C4.37076 18.3258 4.56099 18.2878 4.7215 18.2257C5.3765 17.9724 5.85063 17.394 5.9706 16.7021C6 16.5325 6 16.3385 6 15.9505V7.27922C6 5.70946 6 4.92459 6.45332 4.37163C6.90663 3.81867 7.67627 3.66475 9.21554 3.35689L11.2155 2.95689C13.4291 2.51417 14.536 2.29281 15.268 2.89292C16 3.49304 16 4.62176 16 6.87922V7M16 12V13.9505C16 14.3385 16 14.5325 15.9706 14.7021C15.8506 15.394 15.3765 15.9724 14.7215 16.2257C14.561 16.2878 14.3708 16.3258 13.9903 16.4019L13.6942 16.4612C13.4199 16.516 13.2827 16.5435 13.1714 16.553C12.0909 16.646 11.1332 15.8608 11.0124 14.7831C11 14.6721 11 14.5322 11 14.2525V14.2525C11 14.018 11 13.9008 11.0098 13.802C11.1041 12.854 11.854 12.1041 12.802 12.0098C12.9008 12 13.018 12 13.2525 12H16ZM16 12V7M16 7L6 9" stroke="#25103A" stroke-width="1.6"/>
<circle cx="18" cy="19" r="6" fill="white"/>
<path d="M20.333 19.4666H18.4663V21.3333H17.533V19.4666H15.6663V18.5333H17.533V16.6666H18.4663V18.5333H20.333V19.4666ZM17.9997 14.3333C17.3868 14.3333 16.78 14.454 16.2138 14.6885C15.6476 14.923 15.1332 15.2667 14.6998 15.7001C13.8247 16.5753 13.333 17.7622 13.333 18.9999C13.333 20.2376 13.8247 21.4246 14.6998 22.2997C15.1332 22.7331 15.6476 23.0768 16.2138 23.3114C16.78 23.5459 17.3868 23.6666 17.9997 23.6666C19.2374 23.6666 20.4243 23.1749 21.2995 22.2997C22.1747 21.4246 22.6663 20.2376 22.6663 18.9999C22.6663 18.3871 22.5456 17.7802 22.3111 17.2141C22.0766 16.6479 21.7328 16.1334 21.2995 15.7001C20.8662 15.2667 20.3517 14.923 19.7855 14.6885C19.2193 14.454 18.6125 14.3333 17.9997 14.3333Z" fill="#5D4DBE"/>
</svg>
